<svg xmlns="http://www.w3.org/2000/svg" width="156.591" height="83.695" viewBox="0 0 156.591 83.695">
  <g id="Group_174" data-name="Group 174" transform="translate(2781.392 -1318.603)">
    <g id="Group_173" data-name="Group 173">
      <g id="Group_88" data-name="Group 88" transform="translate(-2624.801 1318.603) rotate(90)">
        <circle id="Ellipse_9" data-name="Ellipse 9" cx="2.7" cy="2.7" r="2.7" fill="#fff"/>
      </g>
      <g id="Group_89" data-name="Group 89" transform="translate(-2624.801 1344.702) rotate(90)">
        <circle id="Ellipse_9-2" data-name="Ellipse 9" cx="2.7" cy="2.7" r="2.7" fill="#fff"/>
      </g>
      <g id="Group_90" data-name="Group 90" transform="translate(-2624.801 1370.8) rotate(90)">
        <circle id="Ellipse_9-3" data-name="Ellipse 9" cx="2.7" cy="2.7" r="2.7" fill="#fff"/>
      </g>
      <g id="Group_91" data-name="Group 91" transform="translate(-2624.801 1396.898) rotate(90)">
        <circle id="Ellipse_9-4" data-name="Ellipse 9" cx="2.7" cy="2.7" r="2.7" fill="#fff"/>
      </g>
      <g id="Group_92" data-name="Group 92" transform="translate(-2643.7 1318.603) rotate(90)">
        <circle id="Ellipse_9-5" data-name="Ellipse 9" cx="2.7" cy="2.7" r="2.7" fill="#fff"/>
      </g>
      <g id="Group_93" data-name="Group 93" transform="translate(-2643.7 1344.702) rotate(90)">
        <circle id="Ellipse_9-6" data-name="Ellipse 9" cx="2.7" cy="2.7" r="2.7" fill="#fff"/>
      </g>
      <g id="Group_94" data-name="Group 94" transform="translate(-2643.7 1370.8) rotate(90)">
        <circle id="Ellipse_9-7" data-name="Ellipse 9" cx="2.7" cy="2.7" r="2.7" fill="#fff"/>
      </g>
      <g id="Group_95" data-name="Group 95" transform="translate(-2643.7 1396.898) rotate(90)">
        <circle id="Ellipse_9-8" data-name="Ellipse 9" cx="2.7" cy="2.7" r="2.7" fill="#fff"/>
      </g>
      <g id="Group_96" data-name="Group 96" transform="translate(-2662.599 1318.603) rotate(90)">
        <circle id="Ellipse_9-9" data-name="Ellipse 9" cx="2.7" cy="2.7" r="2.7" transform="translate(0 0)" fill="#fff"/>
      </g>
      <g id="Group_97" data-name="Group 97" transform="translate(-2662.599 1344.702) rotate(90)">
        <circle id="Ellipse_9-10" data-name="Ellipse 9" cx="2.7" cy="2.7" r="2.7" transform="translate(0 0)" fill="#fff"/>
      </g>
      <g id="Group_98" data-name="Group 98" transform="translate(-2662.599 1370.8) rotate(90)">
        <circle id="Ellipse_9-11" data-name="Ellipse 9" cx="2.7" cy="2.7" r="2.7" transform="translate(0 0)" fill="#fff"/>
      </g>
      <g id="Group_99" data-name="Group 99" transform="translate(-2662.599 1396.898) rotate(90)">
        <circle id="Ellipse_9-12" data-name="Ellipse 9" cx="2.7" cy="2.7" r="2.7" transform="translate(0 0)" fill="#fff"/>
      </g>
      <g id="Group_100" data-name="Group 100" transform="translate(-2681.498 1318.603) rotate(90)">
        <circle id="Ellipse_9-13" data-name="Ellipse 9" cx="2.7" cy="2.7" r="2.7" transform="translate(0 0)" fill="#fff"/>
      </g>
      <g id="Group_101" data-name="Group 101" transform="translate(-2681.498 1344.702) rotate(90)">
        <circle id="Ellipse_9-14" data-name="Ellipse 9" cx="2.7" cy="2.7" r="2.7" transform="translate(0 0)" fill="#fff"/>
      </g>
      <g id="Group_102" data-name="Group 102" transform="translate(-2681.498 1370.8) rotate(90)">
        <circle id="Ellipse_9-15" data-name="Ellipse 9" cx="2.7" cy="2.7" r="2.7" transform="translate(0 0)" fill="#fff"/>
      </g>
      <g id="Group_103" data-name="Group 103" transform="translate(-2681.498 1396.898) rotate(90)">
        <circle id="Ellipse_9-16" data-name="Ellipse 9" cx="2.7" cy="2.7" r="2.7" transform="translate(0 0)" fill="#fff"/>
      </g>
      <g id="Group_104" data-name="Group 104" transform="translate(-2700.396 1318.603) rotate(90)">
        <circle id="Ellipse_9-17" data-name="Ellipse 9" cx="2.7" cy="2.7" r="2.7" transform="translate(0 0)" fill="#fff"/>
      </g>
      <g id="Group_105" data-name="Group 105" transform="translate(-2700.396 1344.702) rotate(90)">
        <circle id="Ellipse_9-18" data-name="Ellipse 9" cx="2.7" cy="2.7" r="2.7" transform="translate(0 0)" fill="#fff"/>
      </g>
      <g id="Group_106" data-name="Group 106" transform="translate(-2700.396 1370.8) rotate(90)">
        <circle id="Ellipse_9-19" data-name="Ellipse 9" cx="2.7" cy="2.7" r="2.7" transform="translate(0 0)" fill="#fff"/>
      </g>
      <g id="Group_107" data-name="Group 107" transform="translate(-2700.396 1396.898) rotate(90)">
        <circle id="Ellipse_9-20" data-name="Ellipse 9" cx="2.7" cy="2.7" r="2.7" transform="translate(0 0)" fill="#fff"/>
      </g>
      <g id="Group_108" data-name="Group 108" transform="translate(-2719.295 1318.603) rotate(90)">
        <circle id="Ellipse_9-21" data-name="Ellipse 9" cx="2.7" cy="2.7" r="2.7" transform="translate(0 0)" fill="#fff"/>
      </g>
      <g id="Group_109" data-name="Group 109" transform="translate(-2719.295 1344.702) rotate(90)">
        <circle id="Ellipse_9-22" data-name="Ellipse 9" cx="2.7" cy="2.7" r="2.7" transform="translate(0 0)" fill="#fff"/>
      </g>
      <g id="Group_110" data-name="Group 110" transform="translate(-2719.295 1370.8) rotate(90)">
        <circle id="Ellipse_9-23" data-name="Ellipse 9" cx="2.7" cy="2.7" r="2.7" transform="translate(0 0)" fill="#fff"/>
      </g>
      <g id="Group_111" data-name="Group 111" transform="translate(-2719.295 1396.898) rotate(90)">
        <circle id="Ellipse_9-24" data-name="Ellipse 9" cx="2.7" cy="2.7" r="2.7" transform="translate(0 0)" fill="#fff"/>
      </g>
      <g id="Group_112" data-name="Group 112" transform="translate(-2738.194 1318.603) rotate(90)">
        <circle id="Ellipse_9-25" data-name="Ellipse 9" cx="2.7" cy="2.7" r="2.7" transform="translate(0 0)" fill="#fff"/>
      </g>
      <g id="Group_113" data-name="Group 113" transform="translate(-2738.194 1344.702) rotate(90)">
        <circle id="Ellipse_9-26" data-name="Ellipse 9" cx="2.7" cy="2.7" r="2.7" transform="translate(0 0)" fill="#fff"/>
      </g>
      <g id="Group_114" data-name="Group 114" transform="translate(-2738.194 1370.8) rotate(90)">
        <circle id="Ellipse_9-27" data-name="Ellipse 9" cx="2.7" cy="2.7" r="2.7" transform="translate(0 0)" fill="#fff"/>
      </g>
      <g id="Group_115" data-name="Group 115" transform="translate(-2738.194 1396.898) rotate(90)">
        <circle id="Ellipse_9-28" data-name="Ellipse 9" cx="2.7" cy="2.7" r="2.7" transform="translate(0 0)" fill="#fff"/>
      </g>
      <g id="Group_116" data-name="Group 116" transform="translate(-2757.093 1318.603) rotate(90)">
        <circle id="Ellipse_9-29" data-name="Ellipse 9" cx="2.7" cy="2.7" r="2.7" transform="translate(0 0)" fill="#fff"/>
      </g>
      <g id="Group_117" data-name="Group 117" transform="translate(-2757.093 1344.702) rotate(90)">
        <circle id="Ellipse_9-30" data-name="Ellipse 9" cx="2.7" cy="2.7" r="2.7" transform="translate(0 0)" fill="#fff"/>
      </g>
      <g id="Group_118" data-name="Group 118" transform="translate(-2757.093 1370.8) rotate(90)">
        <circle id="Ellipse_9-31" data-name="Ellipse 9" cx="2.7" cy="2.7" r="2.7" transform="translate(0 0)" fill="#fff"/>
      </g>
      <g id="Group_119" data-name="Group 119" transform="translate(-2757.093 1396.898) rotate(90)">
        <circle id="Ellipse_9-32" data-name="Ellipse 9" cx="2.7" cy="2.7" r="2.7" transform="translate(0 0)" fill="#fff"/>
      </g>
      <g id="Group_120" data-name="Group 120" transform="translate(-2775.992 1318.603) rotate(90)">
        <circle id="Ellipse_9-33" data-name="Ellipse 9" cx="2.7" cy="2.7" r="2.7" transform="translate(0 0)" fill="#fff"/>
      </g>
      <g id="Group_121" data-name="Group 121" transform="translate(-2775.992 1344.702) rotate(90)">
        <circle id="Ellipse_9-34" data-name="Ellipse 9" cx="2.7" cy="2.7" r="2.7" transform="translate(0 0)" fill="#fff"/>
      </g>
      <g id="Group_122" data-name="Group 122" transform="translate(-2775.992 1370.8) rotate(90)">
        <circle id="Ellipse_9-35" data-name="Ellipse 9" cx="2.7" cy="2.7" r="2.7" transform="translate(0 0)" fill="#fff"/>
      </g>
      <g id="Group_123" data-name="Group 123" transform="translate(-2775.992 1396.898) rotate(90)">
        <circle id="Ellipse_9-36" data-name="Ellipse 9" cx="2.7" cy="2.7" r="2.7" transform="translate(0 0)" fill="#fff"/>
      </g>
    </g>
  </g>
</svg>
