<svg xmlns="http://www.w3.org/2000/svg" width="279" height="487" viewBox="0 0 279 487">
  <g id="dots2-big" transform="translate(-2175 -160)" opacity="0.11">
    <g id="Group_8" data-name="Group 8" transform="translate(2454.173 159.739) rotate(90)">
      <circle id="Ellipse_9" data-name="Ellipse 9" cx="5.5" cy="5.5" r="5.5" transform="translate(0.261 0.173)"/>
    </g>
    <g id="Group_9" data-name="Group 9" transform="translate(2454.173 212.686) rotate(90)">
      <circle id="Ellipse_9-2" data-name="Ellipse 9" cx="5.5" cy="5.5" r="5.5" transform="translate(0.314 0.173)"/>
    </g>
    <g id="Group_10" data-name="Group 10" transform="translate(2454.173 265.634) rotate(90)">
      <circle id="Ellipse_9-3" data-name="Ellipse 9" cx="5.5" cy="5.5" r="5.5" transform="translate(0.366 0.173)"/>
    </g>
    <g id="Group_11" data-name="Group 11" transform="translate(2454.173 318.582) rotate(90)">
      <circle id="Ellipse_9-4" data-name="Ellipse 9" cx="5.5" cy="5.5" r="5.5" transform="translate(0.418 0.173)"/>
    </g>
    <g id="Group_12" data-name="Group 12" transform="translate(2454.173 371.53) rotate(90)">
      <ellipse id="Ellipse_9-5" data-name="Ellipse 9" cx="5" cy="5.5" rx="5" ry="5.5" transform="translate(0.47 0.173)"/>
    </g>
    <g id="Group_13" data-name="Group 13" transform="translate(2454.173 424.477) rotate(90)">
      <circle id="Ellipse_9-6" data-name="Ellipse 9" cx="5.5" cy="5.5" r="5.5" transform="translate(-0.477 0.173)"/>
    </g>
    <g id="Group_14" data-name="Group 14" transform="translate(2454.173 477.425) rotate(90)">
      <circle id="Ellipse_9-7" data-name="Ellipse 9" cx="5.5" cy="5.5" r="5.5" transform="translate(-0.425 0.173)"/>
    </g>
    <g id="Group_15" data-name="Group 15" transform="translate(2454.173 530.373) rotate(90)">
      <circle id="Ellipse_9-8" data-name="Ellipse 9" cx="5.5" cy="5.5" r="5.5" transform="translate(-0.373 0.173)"/>
    </g>
    <g id="Group_16" data-name="Group 16" transform="translate(2454.173 583.321) rotate(90)">
      <circle id="Ellipse_9-9" data-name="Ellipse 9" cx="5.5" cy="5.5" r="5.5" transform="translate(-0.321 0.173)"/>
    </g>
    <g id="Group_17" data-name="Group 17" transform="translate(2454.173 636.268) rotate(90)">
      <circle id="Ellipse_9-10" data-name="Ellipse 9" cx="5.5" cy="5.5" r="5.5" transform="translate(-0.268 0.173)"/>
    </g>
    <g id="Group_18" data-name="Group 18" transform="translate(2415.831 159.739) rotate(90)">
      <circle id="Ellipse_9-11" data-name="Ellipse 9" cx="5.5" cy="5.5" r="5.5" transform="translate(0.261 -0.169)"/>
    </g>
    <g id="Group_19" data-name="Group 19" transform="translate(2415.831 212.686) rotate(90)">
      <circle id="Ellipse_9-12" data-name="Ellipse 9" cx="5.5" cy="5.5" r="5.5" transform="translate(0.314 -0.169)"/>
    </g>
    <g id="Group_20" data-name="Group 20" transform="translate(2415.831 265.634) rotate(90)">
      <circle id="Ellipse_9-13" data-name="Ellipse 9" cx="5.5" cy="5.5" r="5.5" transform="translate(0.366 -0.169)"/>
    </g>
    <g id="Group_21" data-name="Group 21" transform="translate(2415.831 318.582) rotate(90)">
      <circle id="Ellipse_9-14" data-name="Ellipse 9" cx="5.5" cy="5.5" r="5.5" transform="translate(0.418 -0.169)"/>
    </g>
    <g id="Group_22" data-name="Group 22" transform="translate(2415.831 371.53) rotate(90)">
      <ellipse id="Ellipse_9-15" data-name="Ellipse 9" cx="5" cy="5.5" rx="5" ry="5.5" transform="translate(0.47 -0.169)"/>
    </g>
    <g id="Group_23" data-name="Group 23" transform="translate(2415.831 424.477) rotate(90)">
      <circle id="Ellipse_9-16" data-name="Ellipse 9" cx="5.5" cy="5.5" r="5.5" transform="translate(-0.477 -0.169)"/>
    </g>
    <g id="Group_24" data-name="Group 24" transform="translate(2415.831 477.425) rotate(90)">
      <circle id="Ellipse_9-17" data-name="Ellipse 9" cx="5.5" cy="5.5" r="5.5" transform="translate(-0.425 -0.169)"/>
    </g>
    <g id="Group_25" data-name="Group 25" transform="translate(2415.831 530.373) rotate(90)">
      <circle id="Ellipse_9-18" data-name="Ellipse 9" cx="5.5" cy="5.5" r="5.5" transform="translate(-0.373 -0.169)"/>
    </g>
    <g id="Group_26" data-name="Group 26" transform="translate(2415.831 583.321) rotate(90)">
      <circle id="Ellipse_9-19" data-name="Ellipse 9" cx="5.5" cy="5.5" r="5.5" transform="translate(-0.321 -0.169)"/>
    </g>
    <g id="Group_27" data-name="Group 27" transform="translate(2415.831 636.268) rotate(90)">
      <circle id="Ellipse_9-20" data-name="Ellipse 9" cx="5.5" cy="5.5" r="5.5" transform="translate(-0.268 -0.169)"/>
    </g>
    <g id="Group_28" data-name="Group 28" transform="translate(2377.49 159.739) rotate(90)">
      <ellipse id="Ellipse_9-21" data-name="Ellipse 9" cx="5.5" cy="5" rx="5.5" ry="5" transform="translate(0.261 0.49)"/>
    </g>
    <g id="Group_29" data-name="Group 29" transform="translate(2377.49 212.686) rotate(90)">
      <ellipse id="Ellipse_9-22" data-name="Ellipse 9" cx="5.5" cy="5" rx="5.5" ry="5" transform="translate(0.314 0.49)"/>
    </g>
    <g id="Group_30" data-name="Group 30" transform="translate(2377.49 265.634) rotate(90)">
      <ellipse id="Ellipse_9-23" data-name="Ellipse 9" cx="5.5" cy="5" rx="5.5" ry="5" transform="translate(0.366 0.49)"/>
    </g>
    <g id="Group_31" data-name="Group 31" transform="translate(2377.49 318.582) rotate(90)">
      <ellipse id="Ellipse_9-24" data-name="Ellipse 9" cx="5.5" cy="5" rx="5.5" ry="5" transform="translate(0.418 0.49)"/>
    </g>
    <g id="Group_32" data-name="Group 32" transform="translate(2377.49 371.53) rotate(90)">
      <circle id="Ellipse_9-25" data-name="Ellipse 9" cx="5" cy="5" r="5" transform="translate(0.47 0.49)"/>
    </g>
    <g id="Group_33" data-name="Group 33" transform="translate(2377.49 424.477) rotate(90)">
      <ellipse id="Ellipse_9-26" data-name="Ellipse 9" cx="5.5" cy="5" rx="5.5" ry="5" transform="translate(-0.477 0.49)"/>
    </g>
    <g id="Group_34" data-name="Group 34" transform="translate(2377.49 477.425) rotate(90)">
      <ellipse id="Ellipse_9-27" data-name="Ellipse 9" cx="5.5" cy="5" rx="5.5" ry="5" transform="translate(-0.425 0.49)"/>
    </g>
    <g id="Group_35" data-name="Group 35" transform="translate(2377.49 530.373) rotate(90)">
      <ellipse id="Ellipse_9-28" data-name="Ellipse 9" cx="5.5" cy="5" rx="5.5" ry="5" transform="translate(-0.373 0.49)"/>
    </g>
    <g id="Group_36" data-name="Group 36" transform="translate(2377.49 583.321) rotate(90)">
      <ellipse id="Ellipse_9-29" data-name="Ellipse 9" cx="5.5" cy="5" rx="5.5" ry="5" transform="translate(-0.321 0.49)"/>
    </g>
    <g id="Group_37" data-name="Group 37" transform="translate(2377.49 636.268) rotate(90)">
      <ellipse id="Ellipse_9-30" data-name="Ellipse 9" cx="5.5" cy="5" rx="5.5" ry="5" transform="translate(-0.268 0.49)"/>
    </g>
    <g id="Group_38" data-name="Group 38" transform="translate(2339.148 159.739) rotate(90)">
      <circle id="Ellipse_9-31" data-name="Ellipse 9" cx="5.5" cy="5.5" r="5.5" transform="translate(0.261 0.148)"/>
    </g>
    <g id="Group_39" data-name="Group 39" transform="translate(2339.148 212.686) rotate(90)">
      <circle id="Ellipse_9-32" data-name="Ellipse 9" cx="5.5" cy="5.5" r="5.5" transform="translate(0.314 0.148)"/>
    </g>
    <g id="Group_40" data-name="Group 40" transform="translate(2339.148 265.634) rotate(90)">
      <circle id="Ellipse_9-33" data-name="Ellipse 9" cx="5.5" cy="5.5" r="5.5" transform="translate(0.366 0.148)"/>
    </g>
    <g id="Group_41" data-name="Group 41" transform="translate(2339.148 318.582) rotate(90)">
      <circle id="Ellipse_9-34" data-name="Ellipse 9" cx="5.5" cy="5.5" r="5.5" transform="translate(0.418 0.148)"/>
    </g>
    <g id="Group_42" data-name="Group 42" transform="translate(2339.148 371.53) rotate(90)">
      <ellipse id="Ellipse_9-35" data-name="Ellipse 9" cx="5" cy="5.5" rx="5" ry="5.5" transform="translate(0.47 0.148)"/>
    </g>
    <g id="Group_43" data-name="Group 43" transform="translate(2339.148 424.477) rotate(90)">
      <circle id="Ellipse_9-36" data-name="Ellipse 9" cx="5.5" cy="5.5" r="5.5" transform="translate(-0.477 0.148)"/>
    </g>
    <g id="Group_44" data-name="Group 44" transform="translate(2339.148 477.425) rotate(90)">
      <circle id="Ellipse_9-37" data-name="Ellipse 9" cx="5.5" cy="5.5" r="5.5" transform="translate(-0.425 0.148)"/>
    </g>
    <g id="Group_45" data-name="Group 45" transform="translate(2339.148 530.373) rotate(90)">
      <circle id="Ellipse_9-38" data-name="Ellipse 9" cx="5.5" cy="5.5" r="5.5" transform="translate(-0.373 0.148)"/>
    </g>
    <g id="Group_46" data-name="Group 46" transform="translate(2339.148 583.321) rotate(90)">
      <circle id="Ellipse_9-39" data-name="Ellipse 9" cx="5.5" cy="5.5" r="5.5" transform="translate(-0.321 0.148)"/>
    </g>
    <g id="Group_47" data-name="Group 47" transform="translate(2339.148 636.268) rotate(90)">
      <circle id="Ellipse_9-40" data-name="Ellipse 9" cx="5.5" cy="5.5" r="5.5" transform="translate(-0.268 0.148)"/>
    </g>
    <g id="Group_48" data-name="Group 48" transform="translate(2300.807 159.739) rotate(90)">
      <circle id="Ellipse_9-41" data-name="Ellipse 9" cx="5.5" cy="5.5" r="5.5" transform="translate(0.261 -0.193)"/>
    </g>
    <g id="Group_49" data-name="Group 49" transform="translate(2300.807 212.686) rotate(90)">
      <circle id="Ellipse_9-42" data-name="Ellipse 9" cx="5.5" cy="5.5" r="5.5" transform="translate(0.314 -0.193)"/>
    </g>
    <g id="Group_50" data-name="Group 50" transform="translate(2300.807 265.634) rotate(90)">
      <circle id="Ellipse_9-43" data-name="Ellipse 9" cx="5.5" cy="5.5" r="5.5" transform="translate(0.366 -0.193)"/>
    </g>
    <g id="Group_51" data-name="Group 51" transform="translate(2300.807 318.582) rotate(90)">
      <circle id="Ellipse_9-44" data-name="Ellipse 9" cx="5.5" cy="5.5" r="5.5" transform="translate(0.418 -0.193)"/>
    </g>
    <g id="Group_52" data-name="Group 52" transform="translate(2300.807 371.53) rotate(90)">
      <ellipse id="Ellipse_9-45" data-name="Ellipse 9" cx="5" cy="5.5" rx="5" ry="5.5" transform="translate(0.47 -0.193)"/>
    </g>
    <g id="Group_53" data-name="Group 53" transform="translate(2300.807 424.477) rotate(90)">
      <circle id="Ellipse_9-46" data-name="Ellipse 9" cx="5.5" cy="5.5" r="5.5" transform="translate(-0.477 -0.193)"/>
    </g>
    <g id="Group_54" data-name="Group 54" transform="translate(2300.807 477.425) rotate(90)">
      <circle id="Ellipse_9-47" data-name="Ellipse 9" cx="5.5" cy="5.5" r="5.5" transform="translate(-0.425 -0.193)"/>
    </g>
    <g id="Group_55" data-name="Group 55" transform="translate(2300.807 530.373) rotate(90)">
      <circle id="Ellipse_9-48" data-name="Ellipse 9" cx="5.5" cy="5.5" r="5.5" transform="translate(-0.373 -0.193)"/>
    </g>
    <g id="Group_56" data-name="Group 56" transform="translate(2300.807 583.321) rotate(90)">
      <circle id="Ellipse_9-49" data-name="Ellipse 9" cx="5.5" cy="5.5" r="5.5" transform="translate(-0.321 -0.193)"/>
    </g>
    <g id="Group_57" data-name="Group 57" transform="translate(2300.807 636.268) rotate(90)">
      <circle id="Ellipse_9-50" data-name="Ellipse 9" cx="5.5" cy="5.5" r="5.5" transform="translate(-0.268 -0.193)"/>
    </g>
    <g id="Group_58" data-name="Group 58" transform="translate(2262.465 159.739) rotate(90)">
      <ellipse id="Ellipse_9-51" data-name="Ellipse 9" cx="5.5" cy="5" rx="5.5" ry="5" transform="translate(0.261 0.465)"/>
    </g>
    <g id="Group_59" data-name="Group 59" transform="translate(2262.465 212.686) rotate(90)">
      <ellipse id="Ellipse_9-52" data-name="Ellipse 9" cx="5.5" cy="5" rx="5.5" ry="5" transform="translate(0.314 0.465)"/>
    </g>
    <g id="Group_60" data-name="Group 60" transform="translate(2262.465 265.634) rotate(90)">
      <ellipse id="Ellipse_9-53" data-name="Ellipse 9" cx="5.5" cy="5" rx="5.5" ry="5" transform="translate(0.366 0.465)"/>
    </g>
    <g id="Group_61" data-name="Group 61" transform="translate(2262.465 318.582) rotate(90)">
      <ellipse id="Ellipse_9-54" data-name="Ellipse 9" cx="5.5" cy="5" rx="5.5" ry="5" transform="translate(0.418 0.465)"/>
    </g>
    <g id="Group_62" data-name="Group 62" transform="translate(2262.465 371.53) rotate(90)">
      <circle id="Ellipse_9-55" data-name="Ellipse 9" cx="5" cy="5" r="5" transform="translate(0.47 0.465)"/>
    </g>
    <g id="Group_63" data-name="Group 63" transform="translate(2262.465 424.477) rotate(90)">
      <ellipse id="Ellipse_9-56" data-name="Ellipse 9" cx="5.5" cy="5" rx="5.5" ry="5" transform="translate(-0.477 0.465)"/>
    </g>
    <g id="Group_64" data-name="Group 64" transform="translate(2262.465 477.425) rotate(90)">
      <ellipse id="Ellipse_9-57" data-name="Ellipse 9" cx="5.5" cy="5" rx="5.5" ry="5" transform="translate(-0.425 0.465)"/>
    </g>
    <g id="Group_65" data-name="Group 65" transform="translate(2262.465 530.373) rotate(90)">
      <ellipse id="Ellipse_9-58" data-name="Ellipse 9" cx="5.5" cy="5" rx="5.5" ry="5" transform="translate(-0.373 0.465)"/>
    </g>
    <g id="Group_66" data-name="Group 66" transform="translate(2262.465 583.321) rotate(90)">
      <ellipse id="Ellipse_9-59" data-name="Ellipse 9" cx="5.5" cy="5" rx="5.5" ry="5" transform="translate(-0.321 0.465)"/>
    </g>
    <g id="Group_67" data-name="Group 67" transform="translate(2262.465 636.268) rotate(90)" style="isolation: isolate">
      <ellipse id="Ellipse_9-60" data-name="Ellipse 9" cx="5.5" cy="5" rx="5.5" ry="5" transform="translate(-0.268 0.465)"/>
    </g>
    <g id="Group_68" data-name="Group 68" transform="translate(2224.124 159.739) rotate(90)">
      <circle id="Ellipse_9-61" data-name="Ellipse 9" cx="5.5" cy="5.5" r="5.5" transform="translate(0.261 0.124)"/>
    </g>
    <g id="Group_69" data-name="Group 69" transform="translate(2224.124 212.686) rotate(90)">
      <circle id="Ellipse_9-62" data-name="Ellipse 9" cx="5.5" cy="5.5" r="5.5" transform="translate(0.314 0.124)"/>
    </g>
    <g id="Group_70" data-name="Group 70" transform="translate(2224.124 265.634) rotate(90)">
      <circle id="Ellipse_9-63" data-name="Ellipse 9" cx="5.5" cy="5.5" r="5.5" transform="translate(0.366 0.124)"/>
    </g>
    <g id="Group_71" data-name="Group 71" transform="translate(2224.124 318.582) rotate(90)">
      <circle id="Ellipse_9-64" data-name="Ellipse 9" cx="5.5" cy="5.5" r="5.5" transform="translate(0.418 0.124)"/>
    </g>
    <g id="Group_72" data-name="Group 72" transform="translate(2224.124 371.53) rotate(90)">
      <ellipse id="Ellipse_9-65" data-name="Ellipse 9" cx="5" cy="5.5" rx="5" ry="5.5" transform="translate(0.47 0.124)"/>
    </g>
    <g id="Group_73" data-name="Group 73" transform="translate(2224.124 424.477) rotate(90)">
      <circle id="Ellipse_9-66" data-name="Ellipse 9" cx="5.5" cy="5.5" r="5.5" transform="translate(-0.477 0.124)"/>
    </g>
    <g id="Group_74" data-name="Group 74" transform="translate(2224.124 477.425) rotate(90)">
      <circle id="Ellipse_9-67" data-name="Ellipse 9" cx="5.5" cy="5.5" r="5.5" transform="translate(-0.425 0.124)"/>
    </g>
    <g id="Group_75" data-name="Group 75" transform="translate(2224.124 530.373) rotate(90)">
      <circle id="Ellipse_9-68" data-name="Ellipse 9" cx="5.5" cy="5.5" r="5.5" transform="translate(-0.373 0.124)"/>
    </g>
    <g id="Group_76" data-name="Group 76" transform="translate(2224.124 583.321) rotate(90)">
      <circle id="Ellipse_9-69" data-name="Ellipse 9" cx="5.5" cy="5.5" r="5.5" transform="translate(-0.321 0.124)"/>
    </g>
    <g id="Group_77" data-name="Group 77" transform="translate(2224.124 636.268) rotate(90)">
      <circle id="Ellipse_9-70" data-name="Ellipse 9" cx="5.5" cy="5.5" r="5.5" transform="translate(-0.268 0.124)"/>
    </g>
    <g id="Group_78" data-name="Group 78" transform="translate(2185.782 159.739) rotate(90)">
      <circle id="Ellipse_9-71" data-name="Ellipse 9" cx="5.5" cy="5.5" r="5.5" transform="translate(0.261 -0.218)"/>
    </g>
    <g id="Group_79" data-name="Group 79" transform="translate(2185.782 212.686) rotate(90)">
      <circle id="Ellipse_9-72" data-name="Ellipse 9" cx="5.5" cy="5.5" r="5.5" transform="translate(0.314 -0.218)"/>
    </g>
    <g id="Group_80" data-name="Group 80" transform="translate(2185.782 265.634) rotate(90)">
      <circle id="Ellipse_9-73" data-name="Ellipse 9" cx="5.5" cy="5.5" r="5.5" transform="translate(0.366 -0.218)"/>
    </g>
    <g id="Group_81" data-name="Group 81" transform="translate(2185.782 318.582) rotate(90)">
      <circle id="Ellipse_9-74" data-name="Ellipse 9" cx="5.5" cy="5.5" r="5.5" transform="translate(0.418 -0.218)"/>
    </g>
    <g id="Group_82" data-name="Group 82" transform="translate(2185.782 371.53) rotate(90)">
      <ellipse id="Ellipse_9-75" data-name="Ellipse 9" cx="5" cy="5.5" rx="5" ry="5.5" transform="translate(0.47 -0.218)"/>
    </g>
    <g id="Group_83" data-name="Group 83" transform="translate(2185.782 424.477) rotate(90)">
      <circle id="Ellipse_9-76" data-name="Ellipse 9" cx="5.5" cy="5.5" r="5.5" transform="translate(-0.477 -0.218)"/>
    </g>
    <g id="Group_84" data-name="Group 84" transform="translate(2185.782 477.425) rotate(90)">
      <circle id="Ellipse_9-77" data-name="Ellipse 9" cx="5.5" cy="5.5" r="5.5" transform="translate(-0.425 -0.218)"/>
    </g>
    <g id="Group_85" data-name="Group 85" transform="translate(2185.782 530.373) rotate(90)">
      <circle id="Ellipse_9-78" data-name="Ellipse 9" cx="5.5" cy="5.5" r="5.5" transform="translate(-0.373 -0.218)"/>
    </g>
    <g id="Group_86" data-name="Group 86" transform="translate(2185.782 583.321) rotate(90)">
      <circle id="Ellipse_9-79" data-name="Ellipse 9" cx="5.5" cy="5.5" r="5.5" transform="translate(-0.321 -0.218)"/>
    </g>
    <g id="Group_87" data-name="Group 87" transform="translate(2185.782 636.268) rotate(90)">
      <circle id="Ellipse_9-80" data-name="Ellipse 9" cx="5.5" cy="5.5" r="5.5" transform="translate(-0.268 -0.218)"/>
    </g>
  </g>
</svg>
