<svg xmlns="http://www.w3.org/2000/svg" width="55.2248" height="55.9803" viewBox="0 0 55.2248 55.9803">
  <defs>
    <style>
      .a {
        fill: #333;
      }

      .b {
        fill: #1a1a1a;
      }

      .c {
        fill: #ed1e79;
      }
    </style>
  </defs>
  <g>
    <polygon class="a" points="31.904 3.887 13.387 38.445 17.166 45.497 35.683 10.939 31.904 3.887"/>
    <polygon points="26.281 14.357 7.764 48.915 11.543 55.967 30.06 21.409 26.281 14.357"/>
    <polygon class="b" points="26.281 14.37 7.764 48.928 11.543 55.98 9.613 52.379 26.281 14.37"/>
    <path class="c" d="M50.8019,10.6663a12.06,12.06,0,0,0-5.0577-5.7238,20.6175,20.6175,0,0,0-7.8457-2.65,34.2624,34.2624,0,0,0-17.01,2.2884A37.8024,37.8024,0,0,0,13.2194,8.78a25.0341,25.0341,0,0,0-6.1811,6.1029A19.3582,19.3582,0,0,0,3.724,22.5883a12.8025,12.8025,0,0,0,.82,7.5325A11.4139,11.4139,0,0,0,9.758,35.2439a19.7622,19.7622,0,0,0,7.5875,2.04,35.8679,35.8679,0,0,0,16.1366-2.7576A40.6935,40.6935,0,0,0,40.78,30.5435a30.7132,30.7132,0,0,0,6.1417-5.4741,19.6013,19.6013,0,0,0,3.953-6.9177A11.6748,11.6748,0,0,0,50.8019,10.6663Zm3.2524-1.3679a15.4252,15.4252,0,0,1,.65,9.9118,23.7408,23.7408,0,0,1-4.3411,8.629A38.0637,38.0637,0,0,1,35.3889,39.06a38.2413,38.2413,0,0,1-18.5161,3.0879,23.58,23.58,0,0,1-9.3249-2.9056A15.7045,15.7045,0,0,1,.8344,31.6808,14.2537,14.2537,0,0,1,.93,21.8161a23.618,23.618,0,0,1,4.98-7.8412A44.7985,44.7985,0,0,1,20.4749,3.5982,39.8573,39.8573,0,0,1,38.1174.041a22.4546,22.4546,0,0,1,9.0667,2.2962A14.937,14.937,0,0,1,54.0543,9.2984Z"/>
    <polygon points="26.306 14.37 44.824 48.928 41.045 55.98 22.527 21.422 26.306 14.37"/>
    <polygon class="a" points="31.894 3.919 50.411 38.477 46.632 45.53 28.115 10.972 31.894 3.919"/>
    <polygon class="b" points="31.904 3.887 26.281 14.357 26.281 14.357 27.622 16.825 31.904 3.887"/>
  </g>
</svg>
